<mxfile host="65bd71144e">
    <diagram id="efxgXXv0vo2QWtHGPwvu" name="Page-1">
        <mxGraphModel dx="1328" dy="526" grid="1" gridSize="10" guides="1" tooltips="1" connect="1" arrows="1" fold="1" page="1" pageScale="1" pageWidth="1169" pageHeight="827" math="0" shadow="0">
            <root>
                <mxCell id="0"/>
                <mxCell id="1" parent="0"/>
                <mxCell id="11" style="edgeStyle=none;html=1;endArrow=none;endFill=0;" edge="1" parent="1" source="2" target="5">
                    <mxGeometry relative="1" as="geometry"/>
                </mxCell>
                <mxCell id="12" style="edgeStyle=none;html=1;endArrow=none;endFill=0;" edge="1" parent="1" source="2" target="4">
                    <mxGeometry relative="1" as="geometry"/>
                </mxCell>
                <mxCell id="13" style="edgeStyle=none;html=1;endArrow=none;endFill=0;" edge="1" parent="1" source="2" target="3">
                    <mxGeometry relative="1" as="geometry"/>
                </mxCell>
                <mxCell id="18" value="n" style="edgeStyle=none;html=1;endArrow=none;endFill=0;" edge="1" parent="1" source="2" target="16">
                    <mxGeometry relative="1" as="geometry"/>
                </mxCell>
                <mxCell id="48" style="edgeStyle=none;html=1;endArrow=none;endFill=0;" edge="1" parent="1" source="2" target="44">
                    <mxGeometry relative="1" as="geometry"/>
                </mxCell>
                <mxCell id="50" value="1" style="edgeLabel;html=1;align=center;verticalAlign=middle;resizable=0;points=[];" vertex="1" connectable="0" parent="48">
                    <mxGeometry x="-0.1376" y="-1" relative="1" as="geometry">
                        <mxPoint as="offset"/>
                    </mxGeometry>
                </mxCell>
                <mxCell id="2" value="User" style="rounded=0;whiteSpace=wrap;html=1;" vertex="1" parent="1">
                    <mxGeometry x="460" y="260" width="90" height="30" as="geometry"/>
                </mxCell>
                <mxCell id="3" value="password" style="ellipse;whiteSpace=wrap;html=1;" vertex="1" parent="1">
                    <mxGeometry x="340" y="250" width="90" height="40" as="geometry"/>
                </mxCell>
                <mxCell id="4" value="email" style="ellipse;whiteSpace=wrap;html=1;" vertex="1" parent="1">
                    <mxGeometry x="320" y="170" width="90" height="40" as="geometry"/>
                </mxCell>
                <mxCell id="5" value="user_id" style="ellipse;whiteSpace=wrap;html=1;fontStyle=4" vertex="1" parent="1">
                    <mxGeometry x="350" y="100" width="90" height="40" as="geometry"/>
                </mxCell>
                <mxCell id="14" style="edgeStyle=none;html=1;endArrow=none;endFill=0;" edge="1" parent="1" source="7" target="8">
                    <mxGeometry relative="1" as="geometry"/>
                </mxCell>
                <mxCell id="15" style="edgeStyle=none;html=1;endArrow=none;endFill=0;" edge="1" parent="1" source="7" target="9">
                    <mxGeometry relative="1" as="geometry"/>
                </mxCell>
                <mxCell id="7" value="Role" style="rounded=0;whiteSpace=wrap;html=1;" vertex="1" parent="1">
                    <mxGeometry x="590" y="140" width="90" height="30" as="geometry"/>
                </mxCell>
                <mxCell id="8" value="roll_id" style="ellipse;whiteSpace=wrap;html=1;fontStyle=4" vertex="1" parent="1">
                    <mxGeometry x="570" y="50" width="90" height="40" as="geometry"/>
                </mxCell>
                <mxCell id="9" value="name" style="ellipse;whiteSpace=wrap;html=1;" vertex="1" parent="1">
                    <mxGeometry x="720" y="70" width="90" height="40" as="geometry"/>
                </mxCell>
                <mxCell id="19" value="1" style="edgeStyle=none;html=1;endArrow=none;endFill=0;" edge="1" parent="1" source="16" target="7">
                    <mxGeometry relative="1" as="geometry"/>
                </mxCell>
                <mxCell id="16" value="has" style="rhombus;whiteSpace=wrap;html=1;" vertex="1" parent="1">
                    <mxGeometry x="550" y="200" width="50" height="50" as="geometry"/>
                </mxCell>
                <mxCell id="22" style="edgeStyle=none;html=1;endArrow=none;endFill=0;" edge="1" parent="1" source="26" target="30">
                    <mxGeometry relative="1" as="geometry"/>
                </mxCell>
                <mxCell id="24" style="edgeStyle=none;html=1;endArrow=none;endFill=0;" edge="1" parent="1" source="26" target="28">
                    <mxGeometry relative="1" as="geometry"/>
                </mxCell>
                <mxCell id="25" style="edgeStyle=none;html=1;endArrow=none;endFill=0;" edge="1" parent="1" source="26" target="27">
                    <mxGeometry relative="1" as="geometry"/>
                </mxCell>
                <mxCell id="43" style="edgeStyle=none;html=1;endArrow=none;endFill=0;" edge="1" parent="1" source="26" target="42">
                    <mxGeometry relative="1" as="geometry"/>
                </mxCell>
                <mxCell id="47" value="1" style="edgeStyle=none;html=1;endArrow=none;endFill=0;" edge="1" parent="1" source="26" target="45">
                    <mxGeometry relative="1" as="geometry"/>
                </mxCell>
                <mxCell id="55" value="1" style="edgeStyle=none;html=1;endArrow=none;endFill=0;" edge="1" parent="1" source="26" target="52">
                    <mxGeometry relative="1" as="geometry"/>
                </mxCell>
                <mxCell id="26" value="Company" style="rounded=0;whiteSpace=wrap;html=1;" vertex="1" parent="1">
                    <mxGeometry x="210" y="400" width="90" height="30" as="geometry"/>
                </mxCell>
                <mxCell id="27" value="description" style="ellipse;whiteSpace=wrap;html=1;" vertex="1" parent="1">
                    <mxGeometry x="80" y="460" width="90" height="40" as="geometry"/>
                </mxCell>
                <mxCell id="28" value="name" style="ellipse;whiteSpace=wrap;html=1;" vertex="1" parent="1">
                    <mxGeometry x="60" y="380" width="90" height="40" as="geometry"/>
                </mxCell>
                <mxCell id="30" value="company_id" style="ellipse;whiteSpace=wrap;html=1;fontStyle=4" vertex="1" parent="1">
                    <mxGeometry x="130" y="310" width="90" height="40" as="geometry"/>
                </mxCell>
                <mxCell id="32" style="edgeStyle=none;html=1;endArrow=none;endFill=0;" edge="1" parent="1" source="36" target="40">
                    <mxGeometry relative="1" as="geometry"/>
                </mxCell>
                <mxCell id="33" style="edgeStyle=none;html=1;endArrow=none;endFill=0;" edge="1" parent="1" source="36" target="39">
                    <mxGeometry relative="1" as="geometry"/>
                </mxCell>
                <mxCell id="34" style="edgeStyle=none;html=1;endArrow=none;endFill=0;" edge="1" parent="1" source="36" target="38">
                    <mxGeometry relative="1" as="geometry"/>
                </mxCell>
                <mxCell id="57" value="1" style="edgeStyle=none;html=1;endArrow=none;endFill=0;" edge="1" parent="1" source="36" target="53">
                    <mxGeometry relative="1" as="geometry"/>
                </mxCell>
                <mxCell id="36" value="Learner" style="rounded=0;whiteSpace=wrap;html=1;" vertex="1" parent="1">
                    <mxGeometry x="790" y="400" width="90" height="30" as="geometry"/>
                </mxCell>
                <mxCell id="38" value="lastname" style="ellipse;whiteSpace=wrap;html=1;" vertex="1" parent="1">
                    <mxGeometry x="940" y="390" width="90" height="40" as="geometry"/>
                </mxCell>
                <mxCell id="39" value="learner_id" style="ellipse;whiteSpace=wrap;html=1;fontStyle=4" vertex="1" parent="1">
                    <mxGeometry x="850" y="260" width="90" height="40" as="geometry"/>
                </mxCell>
                <mxCell id="40" value="firstname" style="ellipse;whiteSpace=wrap;html=1;" vertex="1" parent="1">
                    <mxGeometry x="950" y="300" width="90" height="40" as="geometry"/>
                </mxCell>
                <mxCell id="42" value="city" style="ellipse;whiteSpace=wrap;html=1;" vertex="1" parent="1">
                    <mxGeometry x="110" y="530" width="90" height="40" as="geometry"/>
                </mxCell>
                <mxCell id="49" value="1" style="edgeStyle=none;html=1;endArrow=none;endFill=0;" edge="1" parent="1" source="44" target="36">
                    <mxGeometry relative="1" as="geometry"/>
                </mxCell>
                <mxCell id="44" value="is" style="rhombus;whiteSpace=wrap;html=1;" vertex="1" parent="1">
                    <mxGeometry x="690" y="330" width="50" height="50" as="geometry"/>
                </mxCell>
                <mxCell id="46" value="1" style="edgeStyle=none;html=1;endArrow=none;endFill=0;" edge="1" parent="1" source="45" target="2">
                    <mxGeometry relative="1" as="geometry"/>
                </mxCell>
                <mxCell id="45" value="is" style="rhombus;whiteSpace=wrap;html=1;" vertex="1" parent="1">
                    <mxGeometry x="340" y="330" width="50" height="50" as="geometry"/>
                </mxCell>
                <mxCell id="51" value="InternshipPosition" style="rounded=0;whiteSpace=wrap;html=1;" vertex="1" parent="1">
                    <mxGeometry x="200" y="640" width="150" height="50" as="geometry"/>
                </mxCell>
                <mxCell id="56" value="n" style="edgeStyle=none;html=1;endArrow=none;endFill=0;" edge="1" parent="1" source="52" target="51">
                    <mxGeometry relative="1" as="geometry"/>
                </mxCell>
                <mxCell id="52" value="has" style="rhombus;whiteSpace=wrap;html=1;" vertex="1" parent="1">
                    <mxGeometry x="270" y="510" width="50" height="50" as="geometry"/>
                </mxCell>
                <mxCell id="58" value="n" style="edgeStyle=none;html=1;endArrow=none;endFill=0;" edge="1" parent="1" source="53" target="54">
                    <mxGeometry relative="1" as="geometry"/>
                </mxCell>
                <mxCell id="53" value="has" style="rhombus;whiteSpace=wrap;html=1;" vertex="1" parent="1">
                    <mxGeometry x="815" y="460" width="50" height="50" as="geometry"/>
                </mxCell>
                <mxCell id="54" value="Application" style="rounded=0;whiteSpace=wrap;html=1;" vertex="1" parent="1">
                    <mxGeometry x="790" y="570" width="150" height="50" as="geometry"/>
                </mxCell>
            </root>
        </mxGraphModel>
    </diagram>
</mxfile>